<svg xmlns="http://www.w3.org/2000/svg" width="145" height="40" viewBox="0 0 145 40"><path d="M91.374 0V12H96.266V10.7528H92.6876V0H91.374Z" fill="#ff7230"></path><path d="M98.0978 0H96.7842V12.0016H98.0978V0Z" fill="#ff7230"></path><path d="M104.778 9.1056V8.1456C104.836 7.66464 104.756 7.1772 104.549 6.73943C104.342 6.30166 104.015 5.93136 103.606 5.6712C103.956 5.40243 104.23 5.04866 104.404 4.64364C104.577 4.23862 104.644 3.79586 104.598 3.3576V2.8624C104.598 0.88 103.741 0 101.817 0H99.1504V12H101.981C103.863 12 104.781 11.0536 104.781 9.1048M100.466 1.248H101.803C102.899 1.248 103.287 1.6872 103.287 2.928V3.484C103.287 4.6696 102.826 5.132 101.64 5.132H100.466V1.248ZM100.466 6.3784H101.673C103.014 6.3784 103.467 6.82 103.467 8.1248V9.0848C103.467 10.2976 103.067 10.7488 101.983 10.7488H100.463L100.466 6.3784Z" fill="#ff7230"></path><path d="M110.58 10.7528H106.854V6.38H109.942V5.1312H106.854V1.248H110.58V0H105.54V12H110.58V10.7528Z" fill="#ff7230"></path><path d="M112.46 6.592H113.634C114.841 6.592 115.248 7.0032 115.248 8.2224V10.3472C115.243 10.8281 115.289 11.3081 115.386 11.7792L115.434 12.0008H116.806L116.697 11.6392C116.593 11.2167 116.548 10.782 116.562 10.3472V8.2552C116.619 7.80731 116.555 7.35227 116.377 6.93729C116.199 6.52231 115.914 6.1625 115.55 5.8952C115.907 5.62941 116.189 5.27432 116.366 4.86548C116.544 4.45663 116.61 4.00838 116.56 3.5656V2.8624C116.56 0.88 115.704 0 113.781 0H111.146V12H112.46V6.592ZM112.46 1.248H113.764C114.860 1.248 115.248 1.6872 115.248 2.928V3.696C115.248 4.8696 114.786 5.3272 113.601 5.3272H112.46V1.248Z" fill="#ff7230"></path><path d="M118.814 9.3704H121.561L122.116 12H123.458L120.938 0H119.468L116.982 12H118.275L118.814 9.3704ZM120.174 2.6976L121.313 8.1376H119.062L120.174 2.6976Z" fill="#ff7230"></path><path d="M93.2893 14L90.8037 26H92.0973L92.6365 23.3688H95.3821L95.9381 26H97.2805L94.7605 14H93.2893ZM92.8805 22.1368L93.9933 16.6968L95.1317 22.1368H92.8805Z" fill="#ff7230"></path><path d="M100.3 13.8352C98.6249 13.8352 97.5801 14.9552 97.5801 16.7632V23.2344C97.5801 25.0408 98.6201 26.1632 100.3 26.1632C102.021 26.1632 103.049 25.068 103.049 23.2344V21.4664H101.769V23.2672C101.769 24.3144 101.24 24.9144 100.318 24.9144C99.4169 24.9144 98.8993 24.3144 98.8993 23.2672V16.7312C98.8993 15.684 99.4169 15.0832 100.318 15.0832C101.24 15.0832 101.769 15.684 101.769 16.7312V18.2048H103.049V16.7648C103.049 14.9312 102.021 13.8368 100.3 13.8368" fill="#ff7230"></path><path d="M109.191 21.4663H107.911V23.2671C107.911 24.3143 107.383 24.9143 106.46 24.9143C105.559 24.9143 105.042 24.3143 105.042 23.2671V16.7303C105.042 15.6839 105.559 15.0831 106.46 15.0831C107.383 15.0831 107.911 15.6839 107.911 16.7303V18.2047H109.191V16.7647C109.191 14.9311 108.164 13.8367 106.443 13.8367C104.767 13.8367 103.723 14.9567 103.723 16.7647V23.2359C103.723 25.0423 104.763 26.1639 106.443 26.1639C108.164 26.1639 109.191 25.0695 109.191 23.2359V21.4663Z" fill="#ff7230"></path><path d="M115.825 26L113.305 14H111.834L109.349 26H110.638L111.177 23.3688H113.923L114.483 26H115.825ZM111.425 22.1368L112.537 16.6968L113.676 22.1368H111.425Z" fill="#ff7230"></path><path d="M121.858 17.0089C121.858 14.9833 120.948 13.9985 119.077 13.9985H116.312V25.9985H119.077C120.948 25.9985 121.858 25.0137 121.858 22.9881V17.0089ZM120.544 23.0225C120.544 24.3025 120.156 24.7513 119.06 24.7513H117.625V15.2473H119.06C120.156 15.2473 120.544 15.6993 120.544 16.9761V23.0225Z" fill="#ff7230"></path><path d="M127.82 15.2464V14H122.78V26H127.82V24.752H124.095V20.3776H127.183V19.1296H124.095V15.2464H127.82Z" fill="#ff7230"></path><path d="M129.652 17.9144L131.412 25.9992H132.532L134.296 17.9144V26H135.61V14H133.925L132 22.9336L130.072 14H128.387V26H129.652V17.9144Z" fill="#ff7230"></path><path d="M137.984 13.9985H136.671V25.9993H137.984V13.9985Z" fill="#ff7230"></path><path d="M142.426 14H140.955L138.47 26H139.76L140.299 23.3688H143.045L143.605 26H144.947L142.426 14ZM140.548 22.1384L141.661 16.6984L142.799 22.1384H140.548Z" fill="#ff7230"></path><path d="M95.83 33.6655C96.1792 33.3965 96.4537 33.0426 96.6273 32.6374C96.801 32.2323 96.868 31.7895 96.822 31.3511V30.8607C96.822 28.8807 95.9644 27.9983 94.0412 27.9983H91.374V39.9999H94.2044C96.0868 39.9999 97.0044 39.0527 97.0044 37.1039V36.1391C97.0622 35.6582 96.9828 35.1708 96.7755 34.7331C96.5681 34.2954 96.2412 33.9253 95.8324 33.6655M92.69 29.2463H94.0268C95.1228 29.2463 95.5108 29.6863 95.5108 30.9263V31.4823C95.5108 32.6671 95.0492 33.1295 93.8636 33.1295H92.69V29.2463ZM95.6908 37.0863C95.6908 38.2991 95.2908 38.7503 94.2068 38.7503H92.6868V34.3775H93.8932C95.2348 34.3775 95.6876 34.8183 95.6876 36.1231L95.6908 37.0863Z" fill="#ff7230"></path><path d="M97.7598 40H102.8V38.752H99.0742V34.3776H102.163V33.1296H99.0742V29.2464H102.8V28H97.7598V40Z" fill="#ff7230"></path><path d="M104.682 28H103.368V40H108.261V38.752H104.682V28Z" fill="#ff7230"></path><path d="M110.092 28H108.778V40H113.671V38.752H110.092V28Z" fill="#ff7230"></path><path d="M114.186 40H119.226V38.752H115.5V34.3776H118.589V33.1296H115.5V29.2464H119.226V28H114.186V40Z" fill="#ff7230"></path><path d="M124.274 28L121.788 40H123.082L123.621 37.3688H126.366L126.922 40H128.264L125.744 28H124.274ZM123.866 36.136L124.979 30.696L126.118 36.136H123.866Z" fill="#ff7230"></path><path d="M134.158 38.3455V36.2535C134.216 35.8056 134.152 35.3506 133.974 34.9356C133.796 34.5206 133.51 34.1608 133.146 33.8935C133.504 33.6279 133.786 33.2729 133.964 32.864C134.141 32.4552 134.209 32.0068 134.158 31.5639V30.8607C134.158 28.8807 133.301 27.9983 131.378 27.9983H128.743V39.9999H130.057V34.5903H131.23C132.438 34.5903 132.845 35.0015 132.845 36.2207V38.3455C132.84 38.8263 132.886 39.3063 132.982 39.7775L133.03 39.9991H134.402L134.294 39.6375C134.19 39.215 134.144 38.7803 134.158 38.3455ZM132.845 31.6943C132.845 32.8679 132.383 33.3255 131.198 33.3255H130.057V29.2455H131.361C132.457 29.2455 132.845 29.6847 132.845 30.9255V31.6943Z" fill="#ff7230"></path><path d="M134.497 29.2464H136.671V40H137.984V29.2464H140.159V28H134.499L134.497 29.2464Z" fill="#ff7230"></path><path d="M141.987 27.9983H140.674V39.9991H141.987V27.9983Z" fill="#ff7230"></path><path d="M6.7072 0H0V40H15.6L16.6 33.8568H6.7072V0Z" fill="#ff7230"></path><path d="M33.2474 0H24.4138L17.8994 40H24.1674L25.2394 32.2696L26.0994 26.408L28.5794 8.5416L31.1098 26.408L31.9698 32.2696L33.0402 40H39.7602L33.2802 0.2104L33.2474 0Z" fill="#ff7230"></path><path d="M57.4774 18.688C59.9574 17.4744 61.215 14.8624 61.215 10.9152V9.3352C61.215 2.9664 58.2126 0 51.767 0H42.1494V40H52.159C55.2862 40 57.707 39.1688 59.3542 37.5288C61.0014 35.8888 61.8342 33.4872 61.8342 30.3832V26.9976C61.9138 25.0897 61.5069 23.193 60.6518 21.4856C59.9457 20.2155 58.8244 19.2269 57.4758 18.6856M48.8574 6.1432H51.599C53.5566 6.1432 54.5086 7.3904 54.5086 9.956V12.16C54.5086 14.9112 53.4686 16.0856 51.035 16.0856H48.859L48.8574 6.1432ZM55.1278 30.2136C55.2274 31.2224 54.9729 32.2344 54.4078 33.076C54.1154 33.3648 53.7622 33.5848 53.374 33.7199C52.9858 33.855 52.5724 33.9017 52.1638 33.8568H48.8598V22.2256H51.3742C52.8062 22.2256 53.6942 22.5208 54.2662 23.1856C54.8558 23.872 55.1302 25.012 55.1302 26.7744L55.1278 30.2136Z" fill="#ff7230"></path><path d="M78.5023 0H69.6687L63.1543 40H69.4223L70.4951 32.2696L71.3543 26.408L73.8343 8.5416L76.3647 26.408L77.2247 32.2696L78.2975 40H85.0175L78.5023 0Z" fill="#ff7230"></path></svg>
